<svg id="visual" viewBox="0 0 1920 1080" width="1920" height="1080" xmlns="http://www.w3.org/2000/svg" xmlns:xlink="http://www.w3.org/1999/xlink" version="1.1"><rect x="0" y="0" width="1920" height="1080" fill="#F2F2F2"></rect><path d="M0 773L64 763.7C128 754.3 256 735.7 384 694.2C512 652.7 640 588.3 768 590.3C896 592.3 1024 660.7 1152 718C1280 775.3 1408 821.7 1536 824C1664 826.3 1792 784.7 1856 763.8L1920 743L1920 0L1856 0C1792 0 1664 0 1536 0C1408 0 1280 0 1152 0C1024 0 896 0 768 0C640 0 512 0 384 0C256 0 128 0 64 0L0 0Z" fill="#283593" stroke-linecap="round" stroke-linejoin="miter"></path></svg>