<!--
  NextChat - Messages social network
  Copyright (C) 2021  NextChat Inc. & NextChat Contributors
  
  This program is free software: you can redistribute it and/or modify
  it under the terms of the GNU General Public License as published by
  the Free Software Foundation, either version 3 of the License, or
  (at your option) any later version.
  
  This program is distributed in the hope that it will be useful,
  but WITHOUT ANY WARRANTY; without even the implied warranty of
  MERCHANTABILITY or FITNESS FOR A PARTICULAR PURPOSE.  See the
  GNU General Public License for more details.
  
  You should have received a copy of the GNU General Public License
  along with this program.  If not, see <https://www.gnu.org/licenses/>.
-->
<svg viewBox="0 0 512 512" fill="none" xmlns="http://www.w3.org/2000/svg">
<path d="M470.924 228.535C474.335 231.919 477.042 235.936 478.888 240.358C480.734 244.781 481.684 249.521 481.684 254.307C481.684 259.094 480.734 263.834 478.888 268.256C477.042 272.678 474.335 276.696 470.924 280.08L281.954 467.646C275.068 474.478 265.73 478.316 255.993 478.316C246.256 478.316 236.918 474.478 230.031 467.646L41.0613 280.08C34.1808 273.246 30.3158 263.98 30.3158 254.319C30.3158 244.657 34.1808 235.391 41.0613 228.557L230.031 40.9914C233.439 37.6069 237.486 34.9221 241.94 33.0904C246.394 31.2586 251.168 30.3158 255.989 30.3158C260.81 30.3158 265.584 31.2586 270.038 33.0904C274.492 34.9221 278.539 37.6069 281.947 40.9914L470.917 228.557" fill="#653BB7"/>
<path d="M198.767 436.33L230.239 467.632C237.119 474.473 246.45 478.316 256.179 478.316C265.908 478.316 275.238 474.473 282.119 467.632L470.933 279.832C474.342 276.444 477.045 272.421 478.89 267.993C480.735 263.565 481.684 258.82 481.684 254.027C481.684 249.234 480.735 244.488 478.89 240.06C477.045 235.633 474.342 231.61 470.933 228.222L282.119 40.421C390.305 229.771 252.017 386.157 198.737 436.285" fill="#424EB4"/>
<path d="M427.79 261.064L256 427.79L84.2105 261.064L256.008 94.3158L427.79 261.064Z" fill="#439DD7"/>
<path fill-rule="evenodd" clip-rule="evenodd" d="M205.474 221.144C205.474 217.882 206.805 214.752 209.173 212.445C211.542 210.138 214.755 208.842 218.105 208.842H293.895C297.245 208.842 300.458 210.138 302.827 212.445C305.195 214.752 306.526 217.882 306.526 221.144V270.354C306.526 273.617 305.195 276.746 302.827 279.053C300.458 281.36 297.245 282.656 293.895 282.656H278.105C277.125 282.656 276.158 282.878 275.281 283.305C274.404 283.733 273.641 284.353 273.053 285.117L261.053 300.697C260.464 301.461 259.701 302.081 258.824 302.509C257.947 302.936 256.98 303.158 256 303.158C255.019 303.158 254.052 302.936 253.175 302.509C252.298 302.081 251.536 301.461 250.947 300.697L238.947 285.117C238.359 284.353 237.596 283.733 236.719 283.305C235.842 282.878 234.875 282.656 233.895 282.656H218.105C214.755 282.656 211.542 281.36 209.173 279.053C206.805 276.746 205.474 273.617 205.474 270.354V221.144ZM227.579 227.296C226.741 227.296 225.938 227.62 225.346 228.196C224.754 228.773 224.421 229.555 224.421 230.371C224.421 231.187 224.754 231.969 225.346 232.546C225.938 233.123 226.741 233.447 227.579 233.447H284.421C285.259 233.447 286.062 233.123 286.654 232.546C287.246 231.969 287.579 231.187 287.579 230.371C287.579 229.555 287.246 228.773 286.654 228.196C286.062 227.62 285.259 227.296 284.421 227.296H227.579ZM227.579 242.673C226.741 242.673 225.938 242.998 225.346 243.574C224.754 244.151 224.421 244.933 224.421 245.749C224.421 246.565 224.754 247.347 225.346 247.924C225.938 248.501 226.741 248.825 227.579 248.825H284.421C285.259 248.825 286.062 248.501 286.654 247.924C287.246 247.347 287.579 246.565 287.579 245.749C287.579 244.933 287.246 244.151 286.654 243.574C286.062 242.998 285.259 242.673 284.421 242.673H227.579ZM227.579 258.051C226.741 258.051 225.938 258.375 225.346 258.952C224.754 259.529 224.421 260.311 224.421 261.127C224.421 261.943 224.754 262.725 225.346 263.302C225.938 263.879 226.741 264.203 227.579 264.203H259.158C259.995 264.203 260.799 263.879 261.391 263.302C261.983 262.725 262.316 261.943 262.316 261.127C262.316 260.311 261.983 259.529 261.391 258.952C260.799 258.375 259.995 258.051 259.158 258.051H227.579Z" fill="#F9F9F9"/>
<path d="M256 94.3158L178.452 261.064L255.992 427.79L84.2105 261.064L256 94.3158Z" fill="#8DCBEF"/>
</svg>
