<?xml version="1.0" encoding="UTF-8"?>
<svg viewBox="0 0 1000 1000" xmlns="http://www.w3.org/2000/svg">
<path d="m945.47 443.05c7.077 7.073 12.691 15.47 16.521 24.713s5.801 19.15 5.801 29.154c0 10.005-1.971 19.912-5.801 29.155s-9.444 17.64-16.521 24.713l-392.03 392.03c-14.287 14.28-33.66 22.301-53.86 22.301-20.199 0-39.572-8.021-53.859-22.301l-392.03-392.03c-14.274-14.284-22.292-33.651-22.292-53.844s8.0182-39.56 22.292-53.844l392.03-392.03c7.071-7.0739 15.466-12.686 24.706-16.514 9.24-3.8286 19.144-5.7991 29.145-5.7991 10.002 0 19.906 1.9705 29.146 5.7991 9.24 3.8285 17.635 9.4401 24.706 16.514l392.03 392.03" fill="#7C3AED"/>
<path d="m380.48 877.5l65.344 65.344c14.287 14.28 33.66 22.302 53.859 22.302 20.2 0 39.573-8.022 53.86-22.302l392.03-392.03c7.077-7.073 12.691-15.47 16.521-24.713s5.801-19.149 5.801-29.154-1.971-19.912-5.801-29.155-9.444-17.64-16.521-24.713l-392.03-392.03c224.62 395.27-62.5 721.72-173.12 826.36" fill="#4F46E5"/>
<path d="m856.28 507.62l-355.64 350.08-355.64-350.08 355.66-350.12 355.62 350.12z" fill="#3B82F6"/>
<path d="m392.5 426.56c0-7.045 2.798-13.802 7.78-18.783 4.981-4.981 11.737-7.78 18.782-7.78h159.38c7.045 0 13.801 2.799 18.783 7.78 4.981 4.981 7.78 11.738 7.78 18.783v106.25c0 7.044-2.799 13.801-7.78 18.782-4.982 4.981-11.738 7.78-18.783 7.78h-33.203c-2.062 0-4.095 0.48-5.939 1.402-1.845 0.922-3.449 2.261-4.686 3.911l-25.234 33.641c-1.237 1.649-2.842 2.988-4.686 3.91s-3.877 1.402-5.939 1.402-4.096-0.48-5.94-1.402-3.448-2.261-4.685-3.91l-25.235-33.641c-1.237-1.65-2.841-2.989-4.685-3.911s-3.878-1.402-5.94-1.402h-33.203c-7.045 0-13.801-2.799-18.782-7.78-4.982-4.981-7.78-11.738-7.78-18.782v-106.25zm46.484 13.281c-1.761 0-3.45 0.699-4.696 1.945-1.245 1.245-1.945 2.934-1.945 4.695 0 1.762 0.7 3.451 1.945 4.696 1.246 1.245 2.935 1.945 4.696 1.945h119.53c1.762 0 3.451-0.7 4.696-1.945s1.945-2.934 1.945-4.696c0-1.761-0.7-3.45-1.945-4.695-1.245-1.246-2.934-1.945-4.696-1.945h-119.53zm0 33.203c-1.761 0-3.45 0.7-4.696 1.945-1.245 1.245-1.945 2.934-1.945 4.696 0 1.761 0.7 3.45 1.945 4.695 1.246 1.245 2.935 1.945 4.696 1.945h119.53c1.762 0 3.451-0.7 4.696-1.945s1.945-2.934 1.945-4.695c0-1.762-0.7-3.451-1.945-4.696s-2.934-1.945-4.696-1.945h-119.53zm0 33.203c-1.761 0-3.45 0.7-4.696 1.945-1.245 1.245-1.945 2.934-1.945 4.696 0 1.761 0.7 3.45 1.945 4.695 1.246 1.246 2.935 1.945 4.696 1.945h66.406c1.762 0 3.451-0.699 4.696-1.945 1.245-1.245 1.945-2.934 1.945-4.695 0-1.762-0.7-3.451-1.945-4.696s-2.934-1.945-4.696-1.945h-66.406z" clip-rule="evenodd" fill="#F9F9F9" fill-rule="evenodd"/>
<path d="m499.7 157.97l-160.55 350.12 160.53 350.08-355.64-350.08 355.66-350.12z" fill="#60A5FA"/>
</svg>
