<svg width="181" height="181" viewBox="0 0 181 181" fill="none" xmlns="http://www.w3.org/2000/svg">
<path d="M176.608 80.4292C177.968 81.7887 179.047 83.4031 179.784 85.1798C180.52 86.9564 180.898 88.861 180.898 90.7842C180.898 92.7074 180.52 94.6114 179.784 96.3881C179.047 98.1648 177.968 99.7792 176.608 101.139L101.258 176.497C98.5121 179.242 94.7884 180.784 90.906 180.784C87.0237 180.784 83.3 179.242 80.5541 176.497L5.20423 101.139C2.46066 98.393 0.919525 94.6702 0.919525 90.7884C0.919525 86.907 2.46066 83.1838 5.20423 80.4385L80.5541 5.07958C81.913 3.71982 83.5267 2.64111 85.3027 1.90519C87.0787 1.16923 88.9821 0.790421 90.9046 0.790421C92.8271 0.790421 94.7305 1.16923 96.5065 1.90519C98.2825 2.64111 99.8962 3.71982 101.255 5.07958L176.605 80.4385" fill="#653BB7"/>
<path d="M68.0161 163.943L80.5751 176.504C83.321 179.248 87.0447 180.79 90.927 180.79C94.8094 180.79 98.5331 179.248 101.279 176.504L176.629 101.145C177.989 99.7853 179.068 98.171 179.805 96.3943C180.541 94.6176 180.92 92.7131 180.92 90.7899C180.92 88.8667 180.541 86.9626 179.805 85.1859C179.068 83.4092 177.989 81.7949 176.629 80.4353L101.279 5.07666C144.453 81.0573 89.2662 143.81 68.0039 163.925" fill="#424EB4"/>
<path d="M159.466 92.8432L91.1104 160.137L22.7549 92.8432L91.1132 25.5397L159.466 92.8432Z" fill="#439DD7"/>
<path fill-rule="evenodd" clip-rule="evenodd" d="M70.3253 77.2606C70.3253 75.9062 70.8632 74.6077 71.8205 73.6498C72.7782 72.6924 74.0765 72.1545 75.4308 72.1545H106.063C107.417 72.1545 108.716 72.6924 109.673 73.6498C110.631 74.6077 111.169 75.9062 111.169 77.2606V97.6847C111.169 99.0386 110.631 100.338 109.673 101.295C108.716 102.252 107.417 102.79 106.063 102.79H99.6816C99.2851 102.79 98.8942 102.883 98.5396 103.06C98.1855 103.237 97.8772 103.495 97.6392 103.812L92.7889 110.279C92.5514 110.596 92.2431 110.853 91.8885 111.03C91.534 111.207 91.143 111.3 90.7469 111.3C90.3504 111.3 89.9599 111.207 89.6054 111.03C89.2508 110.853 88.9425 110.596 88.7045 110.279L83.8547 103.812C83.6167 103.495 83.3084 103.237 82.9538 103.06C82.5997 102.883 82.2088 102.79 81.8123 102.79H75.4308C74.0765 102.79 72.7782 102.252 71.8205 101.295C70.8632 100.338 70.3253 99.0386 70.3253 97.6847V77.2606ZM79.26 79.8137C78.9213 79.8137 78.5966 79.9481 78.3573 80.1874C78.1179 80.4268 77.9836 80.7515 77.9836 81.0902C77.9836 81.4285 78.1179 81.7532 78.3573 81.9926C78.5966 82.2319 78.9213 82.3663 79.26 82.3663H102.234C102.573 82.3663 102.897 82.2319 103.137 81.9926C103.376 81.7532 103.51 81.4285 103.51 81.0902C103.51 80.7515 103.376 80.4268 103.137 80.1874C102.897 79.9481 102.573 79.8137 102.234 79.8137H79.26ZM79.26 86.1959C78.9213 86.1959 78.5966 86.3307 78.3573 86.5701C78.1179 86.8094 77.9836 87.1341 77.9836 87.4724C77.9836 87.8111 78.1179 88.1359 78.3573 88.3752C78.5966 88.6146 78.9213 88.7489 79.26 88.7489H102.234C102.573 88.7489 102.897 88.6146 103.137 88.3752C103.376 88.1359 103.51 87.8111 103.51 87.4724C103.51 87.1341 103.376 86.8094 103.137 86.5701C102.897 86.3307 102.573 86.1959 102.234 86.1959H79.26ZM79.26 92.5785C78.9213 92.5785 78.5966 92.7129 78.3573 92.9523C78.1179 93.1916 77.9836 93.5163 77.9836 93.8551C77.9836 94.1938 78.1179 94.5181 78.3573 94.7579C78.5966 94.9972 78.9213 95.1316 79.26 95.1316H92.0233C92.362 95.1316 92.6863 94.9972 92.926 94.7579C93.1654 94.5181 93.2997 94.1938 93.2997 93.8551C93.2997 93.5163 93.1654 93.1916 92.926 92.9523C92.6863 92.7129 92.362 92.5785 92.0233 92.5785H79.26Z" fill="#F9F9F9"/>
<path d="M90.9303 25.6298L60.0723 92.9333L90.9271 160.227L22.5715 92.9333L90.9303 25.6298Z" fill="#8DCBEF"/>
</svg>
