<svg width="412" height="412" viewBox="0 0 412 412" fill="none" xmlns="http://www.w3.org/2000/svg">
<path d="M389.533 182.535C392.449 185.449 394.762 188.909 396.34 192.717C397.918 196.525 398.73 200.607 398.73 204.729C398.73 208.851 397.918 212.932 396.34 216.74C394.762 220.548 392.449 224.008 389.533 226.922L228.016 388.439C222.13 394.322 214.148 397.627 205.826 397.627C197.504 397.627 189.522 394.322 183.636 388.439L22.1193 226.922C16.2383 221.037 12.9348 213.058 12.9348 204.738C12.9348 196.419 16.2383 188.439 22.1193 182.555L183.636 21.0377C186.549 18.1233 190.008 15.8113 193.815 14.234C197.622 12.6566 201.702 11.8447 205.823 11.8447C209.944 11.8447 214.024 12.6566 217.831 14.234C221.638 15.8113 225.097 18.1233 228.01 21.0377L389.527 182.555" fill="#653BB7"/>
<path d="M156.76 361.53L183.681 388.452C189.567 394.335 197.549 397.64 205.871 397.64C214.193 397.64 222.175 394.335 228.061 388.452L389.578 226.935C392.494 224.021 394.807 220.561 396.385 216.753C397.963 212.945 398.775 208.863 398.775 204.741C398.775 200.619 397.963 196.538 396.385 192.73C394.807 188.922 392.494 185.462 389.578 182.548L228.061 21.0312C320.607 183.881 202.311 318.379 156.734 361.491" fill="#424EB4"/>
<path d="M352.788 209.142L206.264 353.374L59.74 209.142L206.27 64.89L352.788 209.142Z" fill="#439DD7"/>
<path fill-rule="evenodd" clip-rule="evenodd" d="M161.71 175.744C161.71 172.841 162.863 170.058 164.915 168.005C166.968 165.953 169.751 164.8 172.654 164.8H238.316C241.219 164.8 244.002 165.953 246.055 168.005C248.107 170.058 249.26 172.841 249.26 175.744V219.519C249.26 222.421 248.107 225.205 246.055 227.257C244.002 229.309 241.219 230.462 238.316 230.462H224.637C223.787 230.462 222.949 230.66 222.189 231.04C221.43 231.42 220.769 231.972 220.259 232.651L209.862 246.512C209.353 247.191 208.692 247.743 207.932 248.123C207.172 248.502 206.334 248.7 205.485 248.7C204.635 248.7 203.798 248.502 203.038 248.123C202.278 247.743 201.617 247.191 201.107 246.512L190.711 232.651C190.201 231.972 189.54 231.42 188.78 231.04C188.021 230.66 187.183 230.462 186.333 230.462H172.654C169.751 230.462 166.968 229.309 164.915 227.257C162.863 225.205 161.71 222.421 161.71 219.519V175.744ZM180.862 181.216C180.136 181.216 179.44 181.504 178.927 182.017C178.414 182.53 178.126 183.226 178.126 183.952C178.126 184.677 178.414 185.373 178.927 185.886C179.44 186.399 180.136 186.687 180.862 186.687H230.108C230.834 186.687 231.53 186.399 232.043 185.886C232.556 185.373 232.844 184.677 232.844 183.952C232.844 183.226 232.556 182.53 232.043 182.017C231.53 181.504 230.834 181.216 230.108 181.216H180.862ZM180.862 194.895C180.136 194.895 179.44 195.184 178.927 195.697C178.414 196.21 178.126 196.906 178.126 197.631C178.126 198.357 178.414 199.053 178.927 199.566C179.44 200.079 180.136 200.367 180.862 200.367H230.108C230.834 200.367 231.53 200.079 232.043 199.566C232.556 199.053 232.844 198.357 232.844 197.631C232.844 196.906 232.556 196.21 232.043 195.697C231.53 195.184 230.834 194.895 230.108 194.895H180.862ZM180.862 208.575C180.136 208.575 179.44 208.863 178.927 209.376C178.414 209.889 178.126 210.585 178.126 211.311C178.126 212.037 178.414 212.732 178.927 213.246C179.44 213.759 180.136 214.047 180.862 214.047H208.221C208.947 214.047 209.642 213.759 210.156 213.246C210.669 212.732 210.957 212.037 210.957 211.311C210.957 210.585 210.669 209.889 210.156 209.376C209.642 208.863 208.947 208.575 208.221 208.575H180.862Z" fill="#F9F9F9"/>
<path d="M205.878 65.0831L139.732 209.335L205.871 353.567L59.3473 209.335L205.878 65.0831Z" fill="#8DCBEF"/>
</svg>
