<svg width="48" height="48" viewBox="0 0 48 48" fill="none" xmlns="http://www.w3.org/2000/svg">
<path d="M46.8504 21.2346C47.213 21.5971 47.5008 22.0275 47.6971 22.5012C47.8934 22.9749 47.9944 23.4827 47.9944 23.9955C47.9944 24.5083 47.8934 25.016 47.6971 25.4897C47.5008 25.9636 47.213 26.394 46.8504 26.7565L26.757 46.8498C26.0247 47.5817 25.0317 47.9929 23.9964 47.9929C22.9611 47.9929 21.9681 47.5817 21.236 46.8498L1.14258 26.7565C0.410971 26.0243 0 25.0317 0 23.9967C0 22.9617 0.410971 21.9691 1.14258 21.237L21.236 1.14364C21.5983 0.781066 22.0286 0.493452 22.5022 0.297224C22.9758 0.100997 23.4833 0 23.996 0C24.5087 0 25.0162 0.100997 25.4898 0.297224C25.9634 0.493452 26.3937 0.781066 26.7562 1.14364L46.8495 21.237" fill="#653BB7"/>
<path d="M17.8924 43.5022L21.2415 46.8513C21.9738 47.5832 22.9667 47.9944 24.002 47.9944C25.0374 47.9944 26.0303 47.5832 26.7626 46.8513L46.8559 26.758C47.2186 26.3955 47.5063 25.9651 47.7027 25.4914C47.899 25.0177 48 24.5099 48 23.9971C48 23.4843 47.899 22.9765 47.7027 22.5028C47.5063 22.029 47.2186 21.5986 46.8559 21.2361L26.7626 1.14283C38.2756 21.4019 23.5592 38.1341 17.8892 43.4975" fill="#424EB4"/>
<path d="M42.2791 24.5445L24.0509 42.4875L5.82275 24.5445L24.0518 6.59903L42.2791 24.5445Z" fill="#439DD7"/>
<path d="M24.0028 6.62306L15.7741 24.5686L24.0021 42.5116L5.7739 24.5686L24.0028 6.62306Z" fill="#8DCBEF"/>
<path fill-rule="evenodd" clip-rule="evenodd" d="M18.5082 20.3897C18.5082 20.0286 18.6516 19.6824 18.907 19.427C19.1623 19.1716 19.5086 19.0282 19.8697 19.0282H28.0383C28.3994 19.0282 28.7456 19.1716 29.001 19.427C29.2564 19.6824 29.3998 20.0286 29.3998 20.3897V25.8355C29.3998 26.1965 29.2564 26.5428 29.001 26.7981C28.7456 27.0535 28.3994 27.1969 28.0383 27.1969H26.3366C26.2308 27.1969 26.1267 27.2215 26.0321 27.2688C25.9375 27.3161 25.8554 27.3846 25.792 27.4692L24.4986 29.1935C24.4351 29.278 24.3529 29.3466 24.2584 29.3939C24.1639 29.4412 24.0597 29.4658 23.954 29.4658C23.8483 29.4658 23.7441 29.4412 23.6495 29.3939C23.5551 29.3466 23.4728 29.278 23.4094 29.1935L22.116 27.4692C22.0526 27.3846 21.9704 27.3161 21.8759 27.2688C21.7813 27.2215 21.6771 27.1969 21.5714 27.1969H19.8697C19.5086 27.1969 19.1623 27.0535 18.907 26.7981C18.6516 26.5428 18.5082 26.1965 18.5082 25.8355V20.3897ZM20.8908 21.0705C20.8004 21.0705 20.7139 21.1062 20.65 21.17C20.5862 21.234 20.5504 21.3205 20.5504 21.4108C20.5504 21.501 20.5862 21.5876 20.65 21.6514C20.7139 21.7152 20.8004 21.7511 20.8908 21.7511H27.0172C27.1075 21.7511 27.194 21.7152 27.258 21.6514C27.3218 21.5876 27.3575 21.501 27.3575 21.4108C27.3575 21.3205 27.3218 21.234 27.258 21.17C27.194 21.1062 27.1075 21.0705 27.0172 21.0705H20.8908ZM20.8908 22.7722C20.8004 22.7722 20.7139 22.8081 20.65 22.8719C20.5862 22.9357 20.5504 23.0224 20.5504 23.1126C20.5504 23.2028 20.5862 23.2894 20.65 23.3532C20.7139 23.417 20.8004 23.4529 20.8908 23.4529H27.0172C27.1075 23.4529 27.194 23.417 27.258 23.3532C27.3218 23.2894 27.3575 23.2028 27.3575 23.1126C27.3575 23.0224 27.3218 22.9357 27.258 22.8719C27.194 22.8081 27.1075 22.7722 27.0172 22.7722H20.8908ZM20.8908 24.474C20.8004 24.474 20.7139 24.5099 20.65 24.5737C20.5862 24.6375 20.5504 24.7241 20.5504 24.8143C20.5504 24.9047 20.5862 24.9912 20.65 25.0551C20.7139 25.1189 20.8004 25.1548 20.8908 25.1548H24.2943C24.3847 25.1548 24.4711 25.1189 24.5351 25.0551C24.5989 24.9912 24.6346 24.9047 24.6346 24.8143C24.6346 24.7241 24.5989 24.6375 24.5351 24.5737C24.4711 24.5099 24.3847 24.474 24.2943 24.474H20.8908Z" fill="#F9F9F9"/>
</svg>
